<svg width="32" height="32" viewBox="0 0 32 32" fill="none" xmlns="http://www.w3.org/2000/svg">
<path d="M7.02538 13C7.02372 11.814 7.25682 10.6394 7.71123 9.54395C8.16564 8.44847 8.83238 7.45376 9.67302 6.61716C10.5137 5.78056 11.5116 5.11861 12.6092 4.66948C13.7069 4.22034 14.8826 3.9929 16.0685 4.00026C21.0173 4.03705 24.9756 8.15043 24.9756 13.113V14C24.9756 18.477 25.9123 21.0749 26.7372 22.4948C26.8261 22.6465 26.8734 22.819 26.8743 22.9948C26.8753 23.1706 26.8298 23.3436 26.7426 23.4963C26.6553 23.6489 26.5294 23.7759 26.3774 23.8643C26.2255 23.9528 26.0529 23.9996 25.877 24H6.12295C5.9471 23.9996 5.77448 23.9527 5.62251 23.8643C5.47053 23.7758 5.34457 23.6488 5.25734 23.4961C5.17011 23.3435 5.12468 23.1705 5.12566 22.9946C5.12663 22.8188 5.17396 22.6463 5.26287 22.4946C6.08828 21.0746 7.02537 18.4767 7.02537 14L7.02538 13Z" stroke="black" stroke-width="2" stroke-linecap="round" stroke-linejoin="round"/>
<path d="M12 24V25C12 26.0609 12.4214 27.0783 13.1716 27.8284C13.9217 28.5786 14.9391 29 16 29C17.0609 29 18.0783 28.5786 18.8284 27.8284C19.5786 27.0783 20 26.0609 20 25V24" stroke="black" stroke-width="2" stroke-linecap="round" stroke-linejoin="round"/>
</svg>
