<svg width="32" height="32" viewBox="0 0 32 32" fill="none" xmlns="http://www.w3.org/2000/svg">
<path d="M16 28C22.6274 28 28 22.6274 28 16C28 9.37258 22.6274 4 16 4C9.37258 4 4 9.37258 4 16C4 22.6274 9.37258 28 16 28Z" stroke="black" stroke-width="2" stroke-linecap="round" stroke-linejoin="round"/>
<path d="M16 24C16.8284 24 17.5 23.3284 17.5 22.5C17.5 21.6716 16.8284 21 16 21C15.1716 21 14.5 21.6716 14.5 22.5C14.5 23.3284 15.1716 24 16 24Z" fill="black"/>
<path d="M15.9999 18.0006V17.0006C16.6922 17.0006 17.3689 16.7953 17.9444 16.4107C18.52 16.0261 18.9686 15.4795 19.2335 14.8399C19.4984 14.2004 19.5677 13.4967 19.4327 12.8177C19.2976 12.1388 18.9643 11.5152 18.4748 11.0257C17.9853 10.5362 17.3617 10.2029 16.6828 10.0678C16.0038 9.93275 15.3001 10.0021 14.6605 10.267C14.021 10.5319 13.4744 10.9805 13.0898 11.5561C12.7052 12.1316 12.4999 12.8083 12.4999 13.5006" stroke="black" stroke-width="2" stroke-linecap="round" stroke-linejoin="round"/>
</svg>
