<svg width="122" height="53" viewBox="0 0 122 53" fill="none" xmlns="http://www.w3.org/2000/svg">
<path d="M32.5234 32.7344H38.3242V40.9258H32.5234V52H22.3633V40.9258H1.375L0.917969 34.5273L22.2578 0.8125H32.5234V32.7344ZM11.043 32.7344H22.3633V14.6641L21.6953 15.8242L11.043 32.7344Z" fill="#EE0C20"/>
<path d="M78.2617 30.8359C78.2617 37.9141 76.7969 43.3281 73.8672 47.0781C70.9375 50.8281 66.6484 52.7031 61 52.7031C55.4219 52.7031 51.1562 50.8633 48.2031 47.1836C45.25 43.5039 43.7383 38.2305 43.668 31.3633V21.9414C43.668 14.793 45.1445 9.36719 48.0977 5.66406C51.0742 1.96094 55.3516 0.109375 60.9297 0.109375C66.5078 0.109375 70.7734 1.94922 73.7266 5.62891C76.6797 9.28516 78.1914 14.5469 78.2617 21.4141V30.8359ZM68.1016 20.5C68.1016 16.2578 67.5156 13.1758 66.3438 11.2539C65.1953 9.30859 63.3906 8.33594 60.9297 8.33594C58.5391 8.33594 56.7695 9.26172 55.6211 11.1133C54.4961 12.9414 53.8984 15.8125 53.8281 19.7266V32.1719C53.8281 36.3438 54.3906 39.4492 55.5156 41.4883C56.6641 43.5039 58.4922 44.5117 61 44.5117C63.4844 44.5117 65.2773 43.5391 66.3789 41.5938C67.4805 39.6484 68.0547 36.6719 68.1016 32.6641V20.5Z" fill="black"/>
<path d="M115.211 32.7344H121.012V40.9258H115.211V52H105.051V40.9258H84.0625L83.6055 34.5273L104.945 0.8125H115.211V32.7344ZM93.7305 32.7344H105.051V14.6641L104.383 15.8242L93.7305 32.7344Z" fill="#FC9921"/>
</svg>
