<svg width="56" height="56" viewBox="0 0 56 56" fill="none" xmlns="http://www.w3.org/2000/svg">
<path d="M12.25 12.25V24.3023C12.25 32.9868 19.1963 40.1852 27.8806 40.2496C29.9589 40.2653 32.0198 39.8696 33.9444 39.0851C35.8691 38.3007 37.6194 37.1431 39.0946 35.6791C40.5698 34.215 41.7407 32.4735 42.5396 30.5548C43.3386 28.6362 43.75 26.5784 43.75 24.5V12.25C43.75 11.7859 43.5656 11.3408 43.2374 11.0126C42.9092 10.6844 42.4641 10.5 42 10.5H14C13.5359 10.5 13.0908 10.6844 12.7626 11.0126C12.4344 11.3408 12.25 11.7859 12.25 12.25Z" stroke="#FC9921" stroke-width="2" stroke-linecap="round" stroke-linejoin="round"/>
<path d="M21 49H35" stroke="#FC9921" stroke-width="2" stroke-linecap="round" stroke-linejoin="round"/>
<path d="M28 40.25V49" stroke="#EE0C20" stroke-width="2" stroke-linecap="round" stroke-linejoin="round"/>
<path d="M43.3597 28H45.5C47.3565 28 49.137 27.2625 50.4498 25.9497C51.7625 24.637 52.5 22.8565 52.5 21V17.5C52.5 17.0359 52.3156 16.5908 51.9875 16.2626C51.6593 15.9344 51.2141 15.75 50.75 15.75H43.75" stroke="#EE0C20" stroke-width="2" stroke-linecap="round" stroke-linejoin="round"/>
<path d="M12.6797 28H10.4722C8.61571 28 6.83524 27.2625 5.52248 25.9497C4.20973 24.637 3.47223 22.8565 3.47223 21V17.5C3.47223 17.0359 3.6566 16.5908 3.98479 16.2626C4.31298 15.9344 4.7581 15.75 5.22223 15.75H12.2222" stroke="#EE0C20" stroke-width="2" stroke-linecap="round" stroke-linejoin="round"/>
</svg>
