<svg width="32" height="32" viewBox="0 0 32 32" fill="none" xmlns="http://www.w3.org/2000/svg">
<path d="M18.4999 21.4992L4.99994 21.4992" stroke="black" stroke-width="2" stroke-linecap="round" stroke-linejoin="round"/>
<path d="M26.9999 21.4992L23.4999 21.4992" stroke="black" stroke-width="2" stroke-linecap="round" stroke-linejoin="round"/>
<path d="M20.9999 23.9992C22.3807 23.9992 23.4999 22.8799 23.4999 21.4992C23.4999 20.1185 22.3807 18.9992 20.9999 18.9992C19.6192 18.9992 18.4999 20.1185 18.4999 21.4992C18.4999 22.8799 19.6192 23.9992 20.9999 23.9992Z" stroke="black" stroke-width="2" stroke-linecap="round" stroke-linejoin="round"/>
<path d="M10.4999 10.4992L4.99994 10.4991" stroke="black" stroke-width="2" stroke-linecap="round" stroke-linejoin="round"/>
<path d="M26.9999 10.4991L15.4999 10.4992" stroke="black" stroke-width="2" stroke-linecap="round" stroke-linejoin="round"/>
<path d="M12.9999 12.9992C14.3807 12.9992 15.4999 11.8799 15.4999 10.4992C15.4999 9.11846 14.3807 7.99918 12.9999 7.99918C11.6192 7.99918 10.4999 9.11846 10.4999 10.4992C10.4999 11.8799 11.6192 12.9992 12.9999 12.9992Z" stroke="black" stroke-width="2" stroke-linecap="round" stroke-linejoin="round"/>
</svg>
