<svg width="32" height="32" viewBox="0 0 32 32" fill="none" xmlns="http://www.w3.org/2000/svg">
<path d="M15.3331 3.2349L5.25127 5.25127L3.2349 15.3331C3.20262 15.4945 3.21069 15.6614 3.25839 15.819C3.3061 15.9765 3.39197 16.1199 3.50838 16.2363L16.565 29.2929C16.6578 29.3858 16.7681 29.4594 16.8894 29.5097C17.0107 29.5599 17.1408 29.5858 17.2721 29.5858C17.4034 29.5858 17.5334 29.5599 17.6548 29.5097C17.7761 29.4594 17.8863 29.3858 17.9792 29.2929L29.2929 17.9792C29.3858 17.8863 29.4594 17.7761 29.5097 17.6548C29.5599 17.5334 29.5858 17.4034 29.5858 17.2721C29.5858 17.1408 29.5599 17.0107 29.5097 16.8894C29.4594 16.7681 29.3858 16.6578 29.2929 16.565L16.2363 3.50838C16.1199 3.39197 15.9765 3.3061 15.819 3.25839C15.6614 3.21069 15.4945 3.20262 15.3331 3.2349V3.2349Z" stroke="black" stroke-width="2" stroke-linecap="round" stroke-linejoin="round"/>
<path d="M10.5 12C11.3284 12 12 11.3284 12 10.5C12 9.67157 11.3284 9 10.5 9C9.67157 9 9 9.67157 9 10.5C9 11.3284 9.67157 12 10.5 12Z" fill="black"/>
</svg>
